<svg width="224" height="109" viewBox="0 0 224 109" fill="none" xmlns="http://www.w3.org/2000/svg">
<path d="M21 77.2C10.5 60.8 3.90001 41.9 2.00001 22.5C1.60001 18.2 1.5 13.5 3.9 9.8C7.1 5 13.4 3.7 19.1 2.8C23.2 2.1 28.3 1.90001 30.6 5.40001C32.5 8.20001 31.5 11.8 31.3 15.2C31.1 18.5 33 22.8 36.3 22.4C38.6 22.2 40 19.8 41.6 18.1C44.2 15.5 48.2 14.5 51.8 15.5C56 16.7 59 20.4 60.5 24.5C62 28.6 62.1 33 62.1 37.3C62.1 40.8 62.1 44.5 60.4 47.5C58.8 50.6 55.8 52.7 53 54.7C43.7 61.2 34.4 67.6 25.1 74.1" fill="#C1272D"/>
<path d="M94.7 57C95.6 57.2 96.5 57.5 97.4 58.1C98.3 58.6 98.7 59 98.7 59.2C98.7 59.3 98.7 59.3 98.7 59.4C98.5 59.8 97.9 59.7 96.9 59.1C95.8 58.5 94.2 58.3 92 58.6C89.9 58.9 88.1 59.6 86.8 60.5C86 61.1 85.4 61.8 85 62.5C84.4 63.6 84.3 64.8 84.8 66.1C85.3 67.4 86.4 68.5 88 69.6C88.6 70 89 70.3 89.1 70.3C89.7 70.6 90.5 70.8 91.7 70.9C93 71.1 93.8 71 94.1 70.9C94.3 70.8 94.7 70.8 95.2 71.1C95.8 71.4 96.1 71.7 96.1 72V72.1C96.1 72.1 96.1 72.2 96 72.2C95.8 72.5 95.3 72.7 94.4 72.8C93.5 72.9 92.6 72.9 91.8 72.6C90.8 72.4 89.6 71.9 88.2 71.1C86.1 69.9 84.6 68.8 83.8 67.7C82.1 65.5 81.8 63.4 82.9 61.4C83.2 60.8 83.7 60.2 84.3 59.7C85.5 58.5 87 57.7 89.1 57.2C91.1 56.7 93 56.6 94.7 57Z" fill="black"/>
<path d="M109.8 63.2C109.9 63.1 110.1 63.1 110.4 62.9C110.7 62.8 110.9 62.7 111 62.6C111.1 62.6 111.3 62.5 111.5 62.5C111.8 62.4 112 62.4 112.1 62.4C112.3 62.4 112.5 62.4 112.7 62.5C113 62.5 113.3 62.6 113.6 62.7L114.1 62.9C114.9 63.2 115.5 63.4 115.8 63.6C116.1 63.8 116.5 64.3 117.1 65.1C117.8 66.2 118.2 66.8 118.1 67C118 67.3 117.6 67.3 116.9 67.1C116.3 66.9 115.8 66.6 115.5 66.2C115.1 65.7 114.8 65.5 114.8 65.5C114.8 65.5 114.5 65.2 114 64.7C113.7 64.3 113.5 64.1 113.4 64.1C113.2 64 112.9 64.1 112.5 64.3C111.9 64.5 111.2 65 110.4 65.7C109.6 66.4 108.9 67.1 108.5 67.6C108.1 68.1 107.5 69.6 106.6 72L105.4 75.5L104.5 75.3C103.9 75.2 103.6 74.9 103.5 74.6C103.4 73.9 104.3 69.8 106.3 62.3L106.4 61.8C106.5 61.5 106.6 61.3 106.7 61.2C106.8 61.1 107.1 61.2 107.4 61.3C107.8 61.4 108 61.5 108 61.6C108.1 61.7 108.1 61.9 108.1 62.3C108 62.9 108.2 63.3 108.5 63.4C109 63.4 109.4 63.4 109.8 63.2Z" fill="black"/>
<path d="M131.8 70.9C132.6 71.1 133.4 71.4 134.2 71.8C135.6 72.6 136.1 73.2 135.9 73.6C135.8 73.8 135.4 73.8 134.8 73.4L134.4 73.2L134 73C132.8 72.3 131.1 72.2 129.1 72.6C126.7 73.2 125.2 74.2 124.4 75.5C123.9 76.3 123.9 77.1 124.3 78C124.7 78.8 125.3 79.5 126.3 80.1C127.2 80.6 128.2 80.9 129.3 80.9C132.2 81.1 134.2 80.3 135.2 78.5C135.6 77.8 135.8 77.1 135.9 76.3C136 75.7 136.1 75.3 136.2 75.2C136.4 74.9 136.8 74.9 137.3 75.2C137.7 75.4 138 75.7 138 76C138.1 76.3 138 76.7 137.9 77.3C137.8 77.6 137.7 79.1 137.6 81.6C137.5 84.1 137.4 85.7 137.4 86.4C137.4 86.6 137.4 86.8 137.3 86.9C137.1 87.2 136.7 87.2 135.9 86.8C135.4 86.5 135.2 86.1 135.2 85.5C135.5 83.2 135.5 82 135.3 81.9C135.1 81.8 134.6 81.9 133.7 82.3C132.9 82.6 131.8 82.8 130.5 82.7C129.6 82.6 128.9 82.5 128.4 82.3C127.9 82.1 127 81.7 125.8 81C124.3 80.1 123.3 79.5 122.9 79C122.5 78.5 122.2 77.7 122.1 76.5C122 75.7 122.2 75.1 122.5 74.5C122.8 74 123.2 73.5 123.7 73.1C124.8 72.2 126 71.5 127.5 71.1C128.9 70.6 130.4 70.5 131.8 70.9Z" fill="black"/>
<path d="M159.8 78.1C159.9 78 160.2 78 160.5 78.1C161 78.3 161.3 78.5 161.4 78.7C161.5 79.1 161.4 79.7 161.3 80.7C161.1 81.7 161 83.1 160.9 85C160.7 88.9 160.2 92.2 159.5 94.9C159.5 95 159.4 95.2 159.3 95.5C159.2 95.8 159.1 96 159.1 96.1C158.4 98.2 157.6 99.6 156.7 100.4C155.8 101.1 154.5 101.4 152.7 101.4C152.5 101.4 152.1 101.4 151.6 101.4C151 101.4 150.6 101.4 150.4 101.4C149.9 101.4 149.4 101.3 148.9 101.1C147 100.6 145.6 99.5 144.8 98C143.9 96.4 143.7 94.9 144 93.8C144.1 93.4 144.3 93.2 144.5 93.3C144.6 93.3 145.1 94.2 145.8 95.9C146.4 97.2 146.9 98.2 147.5 98.8C148 99.4 148.7 99.8 149.5 100C149.9 100.1 150.1 100.2 150.3 100.2C150.9 100.3 151.3 100.3 151.5 100.3C151.7 100.3 152 100.2 152.3 100.1C152.6 100 152.9 99.9 153.3 99.9C154.2 99.8 154.9 99.3 155.5 98.6C156 97.8 156.6 96.6 157.1 94.8C157.7 92.9 158 91.2 158.2 89.7C158.4 88 158.5 86.8 158.6 86C158.7 85.1 158.7 84.6 158.3 84.5C158.1 84.4 157.9 84.6 157.7 85C157.1 85.9 156 86.6 154.5 86.9C153 87.2 151.4 87.2 149.8 86.7C149.5 86.6 149.1 86.5 148.5 86.2C147.3 85.6 146.5 84.9 146.2 84C145.9 83.1 146.1 81.6 146.6 79.7L146.8 78.9C147.4 77.2 147.8 76.3 148 76.2C148.1 76.2 148.2 76.2 148.3 76.2C148.6 76.3 148.7 76.5 148.7 76.8C148.7 77.1 148.6 77.9 148.3 79.2C148 81 147.8 82.3 147.9 83.1C147.9 83.8 148.2 84.4 148.7 84.9C149.1 85.3 149.5 85.5 149.8 85.6C150.1 85.7 150.6 85.8 151.2 85.8C154.4 86 156.9 84 158.8 79.7C159.5 78.6 159.7 78.2 159.8 78.1Z" fill="black"/>
<path d="M169.6 85.1C171.6 83 174.8 82.5 179 83.7L179.6 83.9C180.5 84.2 181.3 84.7 181.9 85.4C183.5 87.2 183.8 89.5 183 92.3C182.6 93.6 182.1 94.6 181.3 95.2C180 96.3 178.1 96.8 175.6 96.7C174.8 96.7 173.6 96.5 172.1 96C170 95.4 168.7 94.8 168.2 94.4C167.1 93.4 166.6 92 166.9 90.3C166.9 90.1 167 89.9 167.1 89.5C167.8 87.8 168.6 86.3 169.6 85.1ZM180 85.8C179.5 85.2 179.2 85 179.2 85H178.9C178.7 85 178.3 85 177.9 84.9C177.4 84.8 177 84.8 176.7 84.8C175 84.6 173.9 84.7 173.5 84.9C172.7 85.3 171.9 86.1 171 87.1C170.2 88.2 169.6 89.2 169.3 90.2C169.2 90.7 169.1 91.1 169.2 91.4C169.4 93.1 170.4 94.2 172.3 94.8C173 95 173.7 95.1 174.5 95.2C176.6 95.4 178.4 95.1 179.7 94.3C180.1 94.1 180.4 93.8 180.6 93.5C180.8 93.2 181 92.5 181.3 91.5C181.6 90.5 181.7 89.8 181.8 89.4C181.8 89 181.7 88.5 181.5 87.9C180.9 87.1 180.5 86.4 180 85.8Z" fill="black"/>
<path d="M195.2 85.2C195.5 85.1 195.7 85.1 196 85.4C196.3 85.7 196.4 86 196.3 86.4C196.3 86.5 196.1 86.9 195.7 87.5C195.3 88.2 195 88.8 194.7 89.4C194.4 90 194.3 90.4 194.4 90.5C194.6 90.6 195.1 90.6 196.1 90.4C196.9 90.2 197.5 90.1 197.9 90.2C198.3 90.3 198.8 90.6 199.4 91.2C200 91.7 200.3 92.4 200.3 93.1C200.3 94.1 199.8 95.8 198.7 98.4C197.7 101 196.8 102.7 196.1 103.4C196 103.5 195.9 103.6 195.8 103.6C195.5 103.7 195.1 103.6 194.7 103C194.4 102.7 194.3 102.5 194.2 102.4C194.1 102.3 194.1 102.2 194.1 102C194.1 101.9 194.2 101.7 194.3 101.5C195 100.5 195.9 98.7 196.8 96.2C197.7 93.7 198.1 92.4 197.8 92.1C197.5 91.8 196.3 92.2 194.2 93.2C192.1 94.2 190.3 95.2 189.1 96.2C188.7 96.6 188.4 96.8 188.2 96.8C188 96.8 187.8 96.6 187.4 96.3L186.7 95.6L190.1 91.6C192.5 88.7 193.8 87 194.1 86.4C194.7 85.7 195 85.3 195.2 85.2Z" fill="black"/>
<path d="M219.4 94.1C219.8 94.2 220.3 94.5 221 94.9C222.1 95.5 222.8 96.1 223 96.5C223.1 96.8 223.1 96.9 223.1 97C223 97.2 222.7 97.2 222.2 96.9C222 96.8 221.8 96.7 221.7 96.6C221.6 96.5 221.4 96.4 221.2 96.3C220.3 95.8 219 95.4 217.4 95.1C215.8 94.9 214.9 94.9 214.5 95.2C214.4 95.2 214.4 95.3 214.3 95.4C214 95.9 214.6 96.6 215.9 97.6C218.1 99.2 219.4 100.4 219.8 101.2C220.2 101.9 220.3 102.7 220.3 103.7C220.3 104.7 220.1 105.5 219.7 106.2C219.2 107 218.8 107.6 218.3 107.9C217.8 108.2 217.1 108.4 216.2 108.5C215.6 108.6 215 108.5 214.5 108.4C214 108.2 213 107.8 211.3 107.1C210 106.5 208.9 106 208.1 105.5C206.4 104.6 205.4 103.8 205.2 103.2C205 102.9 205 102.7 205.1 102.6C205.2 102.4 205.8 102.6 207 103.2C207.7 103.6 208.2 103.9 208.6 104.1C209 104.4 209.6 104.7 210.3 105.1C212.2 106.1 213.6 106.7 214.7 106.8C215.8 106.9 216.7 106.5 217.3 105.6C217.4 105.5 217.5 105.3 217.6 105.1C217.9 104.6 218 103.9 217.9 103C217.9 102 217.7 101.3 217.3 100.9C216.9 100.4 216 99.6 214.6 98.5C212.3 96.8 211.5 95.5 212 94.5C212.4 93.8 213.3 93.5 214.7 93.4C216.1 93.2 217.6 93.5 219.4 94.1Z" fill="black"/>
<path d="M22.3 76.5C12.3 60.7 5.70003 42.9 3.70003 24.3C3.10003 19.1 2.40004 12.8 6.80004 8.80002C9.80004 6.10002 14.2 5.20003 18.1 4.50003C23.8 3.50003 30.1 3.00002 30.2 10.8C30.3 13.9 29.4 16.5 30.6 19.5C32.2 23.6 36.2 25.2 39.8 22.3C43.6 19.3 45.8 15.3 51.4 16.9C57.7 18.7 59.9 25.9 60.4 31.6C60.8 36.2 61.3 42.4 59.1 46.7C57 50.7 52.6 53 49.1 55.5C40.8 61.3 32.5 67 24.3 72.8C22.7 73.9 24.2 76.5 25.8 75.4C33.8 69.8 41.8 64.3 49.9 58.7C55.6 54.7 61.9 51.1 63.3 43.7C65.2 33.2 62.7 11.6 47.4 13.8C44.5 14.2 42.2 15.6 40.2 17.6C38.2 19.7 34.1 20.7 33 17.1C32.4 15 33.3 12.2 33.3 10.1C33.3 4.50004 29.8 1.30003 24.4 1.00003C18.5 0.700031 10.8 2.20004 6.00004 5.70004C3.62396e-05 10.1 0.100039 17.5 0.800039 24.3C2.90004 43.4 9.60004 61.8 19.8 78C20.8 79.6 23.4 78.1 22.3 76.5Z" fill="black"/>
</svg>
