<svg width="190" height="64" viewBox="0 0 190 64" fill="none" xmlns="http://www.w3.org/2000/svg">
<path d="M52.9 27C53.9 27.1 55 27.4 56.3 27.8C57.8 28.3 58.6 28.7 58.6 29.1C58.6 29.1 58.6 29.2 58.6 29.3C58.5 29.5 57.1 29.4 54.3 28.9C52.6 28.6 50.9 28.6 49.2 28.8C48.1 29 47.3 29.2 46.8 29.3C46.3 29.5 45.8 29.8 45.3 30.4C44.5 31.2 43.8 32.4 43.1 33.9C42.9 34.2 42.8 34.6 42.6 35.2C42.2 36.2 42.3 37.1 42.8 37.8C43.3 38.5 44.4 39.5 46.2 40.7C48.8 42.5 51.1 44.6 53.1 46.9C55.1 49.2 56.3 51.1 56.7 52.7C57.1 54.2 57 55.8999 56.2 58.0999C55.7 59.5999 55.1 60.7 54.5 61.4C53.6 62.5 52.6 63.1 51.4 63.4C50.2 63.7 48.4 63.6 45.8 63.3C42.8 62.9 40 62.2 37.5 61.4C35.5 60.7 34.4 60.0999 34.1 59.5999C33.9 59.1999 33.8 59 33.8 58.8C33.9 58.4 35.3 58.7 37.9 59.5C40.1 60.2 42.3 60.7999 44.6 61.0999C46.9 61.3999 48.5 61.5 49.5 61.2C51.3 60.7 52.6 59.1999 53.5 56.5999C54 55.0999 54.1 53.9 53.8 52.8C53.5 51.3 52.3 49.5 50.3 47.2C48.3 44.9 45.8 42.7999 43 40.5999C41.1 39.2999 40 38.2 39.6 37.4C39.2 36.6 39.2 35.4999 39.7 34.0999L39.8 33.8C40.2 32.6 40.9 31.4 41.7 30.1C42.5 28.8 43.3 27.9 44 27.4C44.5 27 45.8 26.8 47.8 26.6C49.6 26.7 51.3 26.7 52.9 27Z" fill="black"/>
<path d="M67.9 44.4C70 41.3 73.8 40 79.5 40.6L80.4 40.7C81.6 40.8 82.7 41.3 83.6 42.1C85.9 44 86.9 46.8 86.5 50.5C86.3 52.2 85.8 53.6 85 54.5C83.7 56.2 81.4 57.2 78.2 57.7C77.2 57.9 75.7 57.9 73.7 57.6C70.9 57.3 69.1 56.9 68.4 56.4C66.8 55.4 65.9 53.7 65.8 51.5C65.8 51.3 65.8 51 65.8 50.5C66.1 48.1 66.8 46.1 67.9 44.4ZM81.1 42.9C80.3 42.3 79.9 42 79.9 42H79.5C79.2 42.1 78.8 42.1 78.2 42.1C77.6 42.1 77.1 42.2 76.6 42.2C74.4 42.3 73.1 42.6 72.5 43.1C71.6 43.8 70.7 44.9 69.9 46.5C69.1 48 68.6 49.5 68.5 50.8C68.4 51.5 68.5 52 68.6 52.4C69.2 54.5 70.7 55.7 73.2 56C74.1 56.1 75 56.1 76 56C78.7 55.8 80.8 55.1 82.4 53.7C82.9 53.3 83.2 52.9 83.3 52.5C83.4 52.1 83.6 51.2 83.7 49.9C83.8 48.6 83.9 47.7 83.8 47.2C83.7 46.7 83.5 46.1 83.1 45.3C82.6 44.4 81.9 43.6 81.1 42.9Z" fill="black"/>
<path d="M93.4 21.8C93.3 21.4 93.1999 21.2 93.1999 21.1C93.0999 20.5 93.3999 20.2 94.0999 20.1H94.4C94.8 20.1 95.2 20.3 95.4 20.5C95.6 20.7 95.9 21.2 96.3 22C96.9 23.2 97.6999 27 98.6999 33.4C99.5999 39.5 100.4 43.7 101.1 46.2C102.5 51.1 103.3 54 103.4 54.8C103.5 55.8 103.2 56.3 102.6 56.4C102.5 56.4 102.4 56.4 102.2 56.4C102.1 56.4 102 56.4 101.9 56.4L100.5 56.5L99.6999 53.5C98.9999 50.8 98.4 48.6 97.9 46.7C97.2 44.5 96.4 39.8 95.3 32.7C94.2 25.8 93.6 22.2 93.4 21.8Z" fill="black"/>
<path d="M119.6 41.7C120.6 41.5 121.7 41.5 122.9 41.6C124.9 41.8 125.9 42.2 125.8 42.9C125.8 43.2 125.3 43.4 124.4 43.3L123.8 43.2L123.2 43.1C121.4 42.9 119.4 43.6 117.2 45C114.7 46.9 113.3 48.8 113.1 50.7C113 51.9 113.3 52.9 114.2 53.7C115.1 54.5 116.2 55 117.5 55.1C118.8 55.2 120.1 55.1 121.5 54.6C125.1 53.4 127 51.5 127.3 48.8C127.4 47.8 127.3 46.9 127.1 45.9C126.9 45.2 126.9 44.7 126.9 44.4C127 43.9 127.4 43.7 128.2 43.8C128.8 43.9 129.2 44.1 129.5 44.4C129.7 44.7 129.9 45.3 130 46C130 46.4 130.6 48.2 131.7 51.2C132.8 54.2 133.5 56.2 133.9 57C134 57.3 134.1 57.5 134 57.7C133.9 58.2 133.4 58.4 132.3 58.2C131.5 58.1 131.1 57.7 130.8 57C130 54.2 129.5 52.7 129.1 52.7C128.9 52.7 128.3 53.1 127.4 54C126.6 54.8 125.4 55.5 123.8 56.1C122.7 56.5 121.8 56.7 121.1 56.7C120.4 56.7 119.2 56.7 117.4 56.5C115.2 56.3 113.7 55.9 112.9 55.5C112.1 55.1 111.4 54.3 110.8 53C110.4 52.1 110.2 51.3 110.3 50.5C110.4 49.8 110.6 49 111.1 48.2C111.9 46.6 113.1 45.2 114.6 44C115.9 42.8 117.6 42.1 119.6 41.7Z" fill="black"/>
<path d="M140.7 34.5C140.8 34.2 141.1 34 141.5 33.9C142.1 33.8 142.5 34 142.7 34.4C142.8 34.5 143 35 143.3 35.9C143.6 36.8 144 37.7 144.3 38.5C144.6 39.3 144.9 39.7 145.1 39.7C145.4 39.7 145.8 39.1 146.4 38C146.9 37 147.4 36.4 147.8 36.1C148.2 35.8 148.9 35.6 150 35.5C151 35.4 151.9 35.6 152.6 36.2C153.5 37 154.8 39 156.4 42.2C158 45.4 158.9 47.6 159.1 48.9C159.1 49.1 159.1 49.2 159.1 49.3C159 49.7 158.5 49.9 157.6 49.9C157.1 49.9 156.8 49.9 156.7 49.9C156.6 49.9 156.4 49.8 156.3 49.7C156.2 49.6 156.1 49.3 156 49C155.6 47.4 154.6 45.1 153.1 42.2C151.5 39.2 150.5 37.8 150 37.8C149.5 37.9 148.9 39.3 148 42.3C147.2 45.2 146.7 47.7 146.5 49.7C146.5 50.4 146.4 50.9 146.3 51C146.2 51.2 145.8 51.3 145.2 51.3L143.9 51.5L142.9 44.8C142.1 40 141.6 37.3 141.3 36.6C140.8 35.5 140.6 34.8 140.7 34.5Z" fill="black"/>
<path d="M174.7 29.1C175.7 28.9 176.8 28.9 178 29C180 29.2 181 29.6 180.9 30.3C180.9 30.6 180.4 30.8 179.5 30.7L178.9 30.6L178.3 30.5C176.5 30.3 174.5 31 172.3 32.4C169.8 34.3 168.4 36.2 168.2 38.1C168.1 39.3 168.4 40.3 169.3 41.1C170.2 41.9 171.3 42.4 172.6 42.5C173.9 42.6 175.2 42.5 176.6 42C180.2 40.8 182.1 38.9 182.4 36.2C182.5 35.2 182.4 34.3 182.2 33.3C182 32.6 182 32.1 182 31.8C182.1 31.3 182.5 31.1 183.3 31.2C183.9 31.3 184.3 31.5 184.6 31.8C184.8 32.1 185 32.7 185.1 33.4C185.1 33.8 185.7 35.6 186.8 38.6C187.9 41.6 188.6 43.6 189 44.4C189.1 44.7 189.2 44.9 189.1 45.1C189 45.6 188.5 45.8 187.4 45.6C186.6 45.5 186.2 45.1 185.9 44.4C185.1 41.6 184.6 40.1 184.2 40.1C184 40.1 183.4 40.5 182.5 41.4C181.7 42.2 180.5 42.9 178.9 43.5C177.8 43.9 176.9 44.1 176.2 44.1C175.5 44.1 174.3 44.1 172.5 43.9C170.3 43.7 168.8 43.3 168 42.9C167.2 42.5 166.5 41.7 165.9 40.4C165.5 39.5 165.3 38.7 165.4 37.9C165.5 37.2 165.7 36.4 166.2 35.6C167 34 168.2 32.6 169.7 31.4C171 30.2 172.8 29.5 174.7 29.1Z" fill="black"/>
<path d="M26.6999 38.9001C17.3999 33.6001 9.49991 26.1 3.69991 17.1C2.39991 15.1 1.19998 12.8 1.39998 10.5C1.69998 7.40003 4.49996 5.10004 6.99996 3.20004C8.79996 1.80004 11.1999 0.40003 13.1999 1.50003C14.7999 2.40003 15.2 4.40004 16 6.10004C16.8 7.80004 18.6999 9.40002 20.1999 8.30002C21.2999 7.60002 21.2999 6.10002 21.6999 4.90002C22.2999 3.00002 24 1.50004 26 1.10004C28.3 0.600036 30.7 1.70002 32.5 3.30002C34.2 4.90002 35.4 7.00004 36.5 9.10004C37.4 10.8 38.3 12.6 38.3 14.5C38.3 16.4 37.4 18.2 36.5 19.9C33.6 25.4 30.7 30.9001 27.8 36.4001" fill="#C1272D"/>
<path d="M27.1 38.2C18.9 33.4 11.6999 27.1 6.19993 19.3C4.89993 17.5 3.09997 15.2 2.49997 13C1.49997 8.99999 4.3 5.69998 7.4 3.89998C9.3 2.19998 11.5999 2.19998 14.1999 3.89998C14.5999 4.79998 14.9 5.59999 15.3 6.49999C15.8 7.39999 16.5 8.39998 17.4 8.89998C19.2 9.79998 20.3 9.39999 21.6 7.99999C22.4 7.09999 22.4 5.2 23 4.2C26.7 -1.8 32.4 3.69998 34.5 6.89998C35.8 8.99998 37.6 11.9 37.5 14.4C37.5 17.2 35.2999 20.3 34.0999 22.6C31.7999 27 29.5 31.4 27.1 35.8C26.6 36.7 28 37.6 28.5 36.6C31.8 30.4 36.3 24 38.5 17.3C40 12.8 37.6 8.3 34.9 4.7C32.5 1.5 28.5 -1.2 24.4 0.599996C22.5 1.5 22.2 2.89998 21 4.39998C20.8 4.89998 20.7 5.39998 20.6 5.89998C19.1 5.39998 17.6999 4.99999 16.1999 4.49999C15.6999 4.09999 15.3 2.39998 14.8 1.79998C9.30002 -4.10002 -0.899976 7.29998 0.800024 13.4C2.20002 18.6 7.3 23.8 10.9 27.6C15.4 32.3 20.5 36.2 26.1 39.5C27.2 40.1 28 38.7 27.1 38.2Z" fill="black"/>
</svg>
